# xmcd
#
# Track frame offsets:
#	150
#	14275
#	28693
#	35477
#	42959
#	47030
#	69226
#	85710
#	99107
#	108671
#	119956
#	138988
#	144308
#
# Disc length: 2424 seconds
#
# Revision: 1
# Processed by: cddbd v1.5.1PL2 Copyright (c) Steve Scherf et al.
# Submitted via: audiograbber 1.83.01
#
DISCID=ab09760d
DTITLE=Festa Junina - Quadrilha Marcada
DYEAR=1900
DGENRE=
TTITLE0=Pout Pourrit - Turma da Roça - São João Luzitano - Abertura - Isto é lá
TTITLE0=com Santo Antonio - Noites de Junho
TTITLE1=Pout Pourrit - Chegou a Hora da Fogueira - La Vem Rita - Pula a Fogueir
TTITLE1=a
TTITLE2=Pout Pourrit - Capelinha de Melão - Cai Cai Balão - Sonho de Papel
TTITLE3=Pout Pourrit - Antonio, Pedro e João - São João Luzitano (Encerramento)
TTITLE4=Quadrilha do Zé Pipa (Marcha por Tinho)
TTITLE5=Pout Pourrit - Polca Fogueteira - Quadrilha do Zé Pipa - Quadrilha Bras
TTITLE5=ileira
TTITLE6=Pout Pourrit - O Sanfoneiro Só Tocava Isso - Festa Na Roça - Olha Pro C
TTITLE6=éu
TTITLE7=Pout Pourrit - Naquele São João - Fim de Festa - Pagode Russo (Encerram
TTITLE7=ento da Quadrilha)
TTITLE8=Pout Pourrit (Sanfonado) - São João Lusitano - Pula a Fogueira - Cai Ca
TTITLE8=i Balão
TTITLE9=Pout Pourrit - Capelinha de Melão - Sonho de Papel - Antonio, Pedro e J
TTITLE9=oão
TTITLE10=Pout Pourrit - Isso é Lá Com Santo Antônio - Noites de Junho - Chegou 
TTITLE10=a Hora da Fogueira
TTITLE11=Pou Pourrit - Lá Vem a Rita - O Sanfoneiro Só Tocava Isso
TTITLE12=Quadrilha do Zé Pipa - Karaokê
EXTD=
EXTT0=
EXTT1=
EXTT2=
EXTT3=
EXTT4=
EXTT5=
EXTT6=
EXTT7=
EXTT8=
EXTT9=
EXTT10=
EXTT11=
EXTT12=
PLAYORDER=
